<?xml version="1.0" encoding="iso-8859-1"?>
<!-- Generator: Adobe Illustrator 19.0.0, SVG Export Plug-In . SVG Version: 6.00 Build 0)  -->
<svg version="1.1" id="Layer_1" xmlns="http://www.w3.org/2000/svg" xmlns:xlink="http://www.w3.org/1999/xlink" x="0px" y="0px"
	 viewBox="0 0 512.001 512.001" style="enable-background:new 0 0 512.001 512.001;" xml:space="preserve">
<g>
	<path style="fill:#4481FB;" d="M197.501,107.863h-31.334c-4.306,0-7.829,3.523-7.829,7.829v31.336c0,4.306,3.523,7.829,7.829,7.829
		h31.334c4.306,0,7.829-3.523,7.829-7.829v-31.336C205.33,111.386,201.808,107.863,197.501,107.863z"/>
	<path style="fill:#4481FB;" d="M197.501,180.82h-31.334c-4.306,0-7.829,3.523-7.829,7.829v144.064c0,4.306,3.523,7.829,7.829,7.829
		h31.334c4.306,0,7.829-3.523,7.829-7.829V188.649C205.33,184.342,201.808,180.82,197.501,180.82z"/>
	<path style="fill:#4481FB;" d="M493.972,180.82H387.502c-4.306,0-7.829,3.523-7.829,7.829v144.096c0,4.306,3.523,7.829,7.829,7.829
		h59.509c4.306,0,7.829,3.523,7.829,7.829v10.347c0,4.306-3.523,7.829-7.829,7.829h-59.509c-4.306,0-7.829,3.523-7.829,7.829v21.9
		c0,4.306,3.523,7.829,7.829,7.829h106.468c4.306,0,7.829-3.523,7.829-7.829V188.649C501.801,184.342,498.278,180.82,493.972,180.82
		z M454.841,295.149c0,4.306-3.523,7.829-7.829,7.829h-12.514c-4.304,0-7.829-3.523-7.829-7.829v-68.901
		c0-4.306,3.525-7.829,7.829-7.829h12.514c4.306,0,7.829,3.523,7.829,7.829V295.149z"/>
	<path style="fill:#4481FB;" d="M124.498,107.863H93.196c-4.306,0-7.829,3.523-7.829,7.829v57.298c0,4.306-3.523,7.829-7.829,7.829
		h-59.51c-4.306,0-7.829,3.523-7.829,7.829v144.064c0,4.306,3.523,7.829,7.829,7.829h106.469c4.306,0,7.829-3.523,7.829-7.829
		v-217.02C132.327,111.386,128.804,107.863,124.498,107.863z M85.366,295.149c0,4.306-3.523,7.829-7.829,7.829H65.02
		c-4.306,0-7.829-3.523-7.829-7.829v-68.901c0-4.306,3.523-7.829,7.829-7.829h12.517c4.306,0,7.829,3.523,7.829,7.829
		L85.366,295.149z"/>
	<path style="fill:#4481FB;" d="M345.936,180.82H239.434c-4.306,0-7.829,3.523-7.829,7.829v144.096c0,4.306,3.523,7.829,7.829,7.829
		h59.512c4.306,0,7.829,3.523,7.829,7.829v10.347c0,4.306-3.523,7.829-7.829,7.829h-59.512c-4.306,0-7.829,3.523-7.829,7.829v21.9
		c0,4.306,3.523,7.829,7.829,7.829h106.502c4.306,0,7.829-3.523,7.829-7.829V188.649C353.765,184.342,350.242,180.82,345.936,180.82
		z M306.776,295.149c0,4.306-3.523,7.829-7.829,7.829h-12.521c-4.306,0-7.829-3.523-7.829-7.829v-68.901
		c0-4.306,3.523-7.829,7.829-7.829h12.521c4.306,0,7.829,3.523,7.829,7.829V295.149z"/>
</g>
<g>
	<path style="fill:#103AA1;" d="M197.501,165.057h-31.335c-9.94,0-18.028-8.088-18.028-18.029v-31.336
		c0-9.941,8.088-18.029,18.028-18.029h31.335c9.941,0,18.029,8.088,18.029,18.029v31.336
		C215.53,156.969,207.443,165.057,197.501,165.057z M168.537,144.658h26.594v-26.596h-26.594V144.658z"/>
	<path style="fill:#103AA1;" d="M197.501,350.741h-31.335c-9.94,0-18.028-8.088-18.028-18.029V188.649
		c0-9.94,8.088-18.028,18.028-18.028h31.335c9.941,0,18.029,8.088,18.029,18.028v144.064
		C215.53,342.653,207.443,350.741,197.501,350.741z M168.537,330.343h26.594V191.019h-26.594V330.343z"/>
	<path style="fill:#103AA1;" d="M493.971,414.339H387.503c-9.941,0-18.029-8.088-18.029-18.029v-21.9
		c0-9.941,8.088-18.029,18.029-18.029h57.138v-5.608h-57.138c-9.941,0-18.029-8.088-18.029-18.029V188.649
		c0-9.94,8.088-18.028,18.029-18.028h106.468c9.941,0,18.029,8.088,18.029,18.028v207.661
		C512,406.251,503.912,414.339,493.971,414.339z M389.873,393.94h101.729V191.019H389.873v139.357h57.138
		c9.941,0,18.029,8.088,18.029,18.028v10.348c0,9.941-8.088,18.029-18.029,18.029h-57.138V393.94z M447.011,313.178h-12.514
		c-9.941,0-18.029-8.088-18.029-18.028v-68.902c0-9.941,8.088-18.029,18.029-18.029h12.514c9.941,0,18.029,8.088,18.029,18.029
		v68.902C465.04,305.09,456.952,313.178,447.011,313.178z M436.867,292.779h7.775v-64.161h-7.775V292.779z"/>
	<path style="fill:#103AA1;" d="M124.497,350.741H18.029C8.088,350.741,0,342.653,0,332.712V188.649
		c0-9.94,8.088-18.028,18.029-18.028h57.138v-54.928c0-9.941,8.088-18.029,18.029-18.029h31.3c9.941,0,18.029,8.088,18.029,18.029
		v217.02C142.526,342.653,134.439,350.741,124.497,350.741z M20.398,330.343h101.729V118.062H95.566v54.928
		c0,9.941-8.088,18.029-18.028,18.029H20.398V330.343z M77.537,313.178H65.02c-9.941,0-18.029-8.088-18.029-18.028v-68.902
		c0-9.941,8.088-18.029,18.029-18.029h12.517c9.94,0,18.028,8.088,18.028,18.029v68.902
		C95.566,305.09,87.479,313.178,77.537,313.178z M67.389,292.779h7.778v-64.161h-7.778V292.779z"/>
	<path style="fill:#103AA1;" d="M345.937,414.339H239.434c-9.941,0-18.029-8.088-18.029-18.029v-21.9
		c0-9.941,8.088-18.029,18.029-18.029h57.142v-5.608h-57.142c-9.941,0-18.029-8.088-18.029-18.029V188.649
		c0-9.94,8.088-18.028,18.029-18.028h106.502c9.94,0,18.028,8.088,18.028,18.028v207.661
		C363.964,406.251,355.877,414.339,345.937,414.339z M241.804,393.94h101.762V191.019H241.804v139.357h57.142
		c9.941,0,18.029,8.088,18.029,18.028v10.348c0,9.941-8.088,18.029-18.029,18.029h-57.142V393.94z M298.946,313.178h-12.521
		c-9.94,0-18.028-8.088-18.028-18.028v-68.902c0-9.941,8.088-18.029,18.028-18.029h12.521c9.941,0,18.029,8.088,18.029,18.029
		v68.902C316.975,305.09,308.887,313.178,298.946,313.178z M288.796,292.779h7.781v-64.161h-7.781V292.779z"/>
</g>
<g>
</g>
<g>
</g>
<g>
</g>
<g>
</g>
<g>
</g>
<g>
</g>
<g>
</g>
<g>
</g>
<g>
</g>
<g>
</g>
<g>
</g>
<g>
</g>
<g>
</g>
<g>
</g>
<g>
</g>
</svg>
