<?xml version="1.0" encoding="iso-8859-1"?>
<!-- Generator: Adobe Illustrator 19.0.0, SVG Export Plug-In . SVG Version: 6.00 Build 0)  -->
<svg version="1.1" id="Layer_1" xmlns="http://www.w3.org/2000/svg" xmlns:xlink="http://www.w3.org/1999/xlink" x="0px" y="0px"
	 viewBox="0 0 512 512" style="enable-background:new 0 0 512 512;" xml:space="preserve">
<path style="fill:#507CCD;" d="M406.299,385.922c-2.558-1.384-5.677-1.251-8.118,0.351c-22.439,14.74-45.147,22.213-67.487,22.213
	c-12.176,0-22.653-2.735-32.091-8.4c-6.38-3.752-10.606-8.562-12.907-14.68c-1.755-4.722-3.853-17.286-3.853-50.332V220.981h104.929
	c4.38,0,7.929-3.55,7.929-7.929V138.36c0-4.38-3.549-7.929-7.929-7.929H281.843V18.128c0-4.38-3.549-7.929-7.929-7.929h-67.689
	c-4.001,0-7.377,2.983-7.868,6.956c-2.912,23.519-8.248,43.044-15.874,58.042c-7.523,14.877-17.667,27.793-30.159,38.402
	c-12.436,10.604-27.673,18.87-45.296,24.566c-3.273,1.058-5.491,4.105-5.491,7.545v67.343c0,4.379,3.549,7.929,7.929,7.929h44.669
	v158.957c0,22.982,2.415,40.216,7.383,52.677c5.008,12.615,14.003,24.574,26.741,35.55c12.562,10.785,27.859,19.195,45.465,24.989
	c17.398,5.737,37.631,8.646,60.137,8.646c19.69,0,38.283-2.012,55.265-5.982c17.015-3.987,36.124-10.958,56.789-20.719
	c2.775-1.31,4.544-4.102,4.544-7.169v-75.03C410.465,389.984,408.868,387.304,406.299,385.922z"/>
<g>
	<path style="fill:#2E50A1;" d="M293.863,512c-23.595,0-44.902-3.081-63.332-9.159c-18.87-6.21-35.328-15.274-48.913-26.937
		c-14.011-12.072-23.957-25.367-29.578-39.526c-5.451-13.672-8.103-32.139-8.103-56.44V231.181h-34.47
		c-9.996,0-18.127-8.133-18.127-18.128v-67.342c0-7.891,5.045-14.824,12.554-17.251c16.335-5.28,30.404-12.891,41.815-22.622
		c11.464-9.736,20.77-21.59,27.675-35.243c7.094-13.95,12.088-32.345,14.854-54.693C189.354,6.838,197.088,0,206.225,0h67.689
		c9.996,0,18.127,8.132,18.127,18.128v102.104h94.731c9.996,0,18.128,8.133,18.128,18.128v74.691
		c0,9.996-8.133,18.128-18.128,18.128h-94.731V335.07c0,35.379,2.46,44.75,3.215,46.78c1.456,3.871,4.167,6.882,8.517,9.441
		c7.866,4.72,16.645,6.992,26.921,6.992c20.319,0,41.142-6.91,61.888-20.538c5.586-3.667,12.7-3.972,18.567-0.799
		c5.877,3.17,9.521,9.286,9.512,15.966v75.017c0,6.979-4.078,13.414-10.389,16.392c-21.313,10.067-41.103,17.275-58.817,21.425
		C333.708,509.897,314.333,512,293.863,512z M111.738,210.783h42.398c5.632,0,10.199,4.566,10.199,10.199v158.957
		c0,21.667,2.179,37.663,6.658,48.9c4.4,11.083,12.448,21.711,23.925,31.601c11.536,9.902,25.669,17.655,41.995,23.028
		c16.371,5.398,35.529,8.135,56.949,8.135c18.908,0,36.722-1.923,52.944-5.715c15.958-3.739,33.937-10.263,53.454-19.398v-69.439
		c-22.997,14.357-46.384,21.633-69.568,21.633c-14.078,0-26.292-3.223-37.339-9.854c-8.275-4.866-14.089-11.556-17.204-19.833
		c-3.038-8.174-4.507-25.799-4.507-53.924V220.982c0-5.633,4.567-10.199,10.199-10.199h102.66v-70.151h-102.66
		c-5.632,0-10.199-4.566-10.199-10.199V20.398h-63.417c-3.114,23.826-8.713,43.809-16.651,59.422
		c-8.128,16.072-19.115,30.059-32.648,41.553c-13.074,11.149-28.95,19.888-47.191,25.98v63.43H111.738z"/>
	<path style="fill:#2E50A1;" d="M185.625,300.876c-5.632,0-10.199-4.566-10.199-10.199v-3.06c0-5.633,4.567-10.199,10.199-10.199
		s10.199,4.566,10.199,10.199v3.06C195.825,296.31,191.257,300.876,185.625,300.876z"/>
	<path style="fill:#2E50A1;" d="M185.625,405.928c-5.632,0-10.199-4.566-10.199-10.199v-71.394c0-5.633,4.567-10.199,10.199-10.199
		s10.199,4.566,10.199,10.199v71.394C195.825,401.362,191.257,405.928,185.625,405.928z"/>
</g>
<g>
</g>
<g>
</g>
<g>
</g>
<g>
</g>
<g>
</g>
<g>
</g>
<g>
</g>
<g>
</g>
<g>
</g>
<g>
</g>
<g>
</g>
<g>
</g>
<g>
</g>
<g>
</g>
<g>
</g>
</svg>
