<?xml version="1.0" encoding="iso-8859-1"?>
<!-- Generator: Adobe Illustrator 19.0.0, SVG Export Plug-In . SVG Version: 6.00 Build 0)  -->
<svg version="1.1" id="Layer_1" xmlns="http://www.w3.org/2000/svg" xmlns:xlink="http://www.w3.org/1999/xlink" x="0px" y="0px"
	 viewBox="0 0 512 512" style="enable-background:new 0 0 512 512;" xml:space="preserve">
<path style="fill:#A8A7B0;" d="M10.208,255.99c0,97.283,56.537,181.375,138.538,221.207L31.493,155.964
	C17.86,186.532,10.208,220.359,10.208,255.99z M419.188,237.641c0-30.385-8.173-45.466-17.522-61.833
	c-12.457-20.259-24.136-37.391-24.136-57.649c0-22.595,17.122-43.623,41.268-43.623c1.094,0,2.132,0.132,3.184,0.198
	C378.259,34.668,319.99,10.199,256.001,10.199c-85.871,0-161.414,44.063-205.368,110.778c5.776,0.192,11.213,0.308,15.821,0.308
	c25.703,0,65.515-3.123,65.515-3.123c13.246-0.78,14.802,27.144,1.567,28.709c0,0-13.321,1.558-28.124,2.331l80.479,239.564
	l53.793-161.323l-29.269-78.243c-13.246-0.772-25.776-2.331-25.776-2.331c-13.246-0.786-11.696-29.49,1.556-28.709
	c0,0,40.584,3.123,64.735,3.123c25.704,0,65.515-3.123,65.515-3.123c13.246-0.78,14.812,27.144,1.567,28.709
	c0,0-13.335,1.558-28.123,2.331l83.405,244.49l27.191-76.586C412.946,285.16,419.188,258.678,419.188,237.641z M260.32,277.491
	l-73.753,214.294c22.022,6.477,45.313,10.016,69.434,10.016c28.629,0,56.082-4.943,81.627-13.935
	c-0.648-1.054-1.261-2.169-1.756-3.389L260.32,277.491z M471.69,138.076c1.061,7.825,1.658,16.22,1.658,25.272
	c0,24.932-4.676,52.972-18.7,88.034l-75.071,217.057c73.081-42.605,122.217-121.771,122.217-212.447
	C501.794,213.254,490.868,173.079,471.69,138.076z"/>
<g>
	<path style="fill:#7B7B82;" d="M256.001,512c-24.446,0-48.776-3.509-72.311-10.431c-2.672-0.786-4.907-2.63-6.185-5.106
		s-1.488-5.365-0.581-7.998l73.754-214.293c1.406-4.085,5.231-6.84,9.55-6.88c0.032,0,0.064,0,0.096,0
		c4.281,0,8.109,2.674,9.58,6.702l75.473,206.772c0.218,0.507,0.521,1.071,0.944,1.761c1.613,2.626,1.953,5.842,0.922,8.747
		c-1.03,2.906-3.319,5.188-6.226,6.212C313.657,507.117,285.054,512,256.001,512z M199.763,484.783
		c18.425,4.527,37.294,6.818,56.238,6.818c23.125,0,45.936-3.361,67.963-10l-63.361-173.59L199.763,484.783z M148.745,487.397
		c-1.513,0-3.036-0.336-4.454-1.025c-42.594-20.69-78.61-52.76-104.158-92.743C13.884,352.549,0.009,304.954,0.009,255.99
		c0-36.146,7.459-71.199,22.169-104.181c1.692-3.794,5.494-6.171,9.669-6.039c4.152,0.145,7.801,2.793,9.226,6.696L158.327,473.7
		c1.425,3.904,0.339,8.283-2.747,11.068C153.666,486.498,151.219,487.397,148.745,487.397z M31.29,185.153
		c-7.23,22.842-10.883,46.573-10.883,70.837c0,81.983,41.299,156.049,109.382,199.017L31.29,185.153z M379.579,478.638
		c-2.312,0-4.61-0.785-6.479-2.319c-3.295-2.709-4.557-7.182-3.164-11.213l75.07-217.056c0.053-0.152,0.109-0.304,0.169-0.454
		c12.26-30.654,17.971-57.424,17.971-84.247c0-8.194-0.527-16.236-1.566-23.901c-0.66-4.871,2.248-9.521,6.917-11.059
		c4.672-1.533,9.772,0.478,12.133,4.786c20.516,37.442,31.359,79.912,31.359,122.817c0,45.577-12.14,90.328-35.109,129.417
		c-22.282,37.921-54.155,69.679-92.171,91.842C383.118,478.18,381.344,478.638,379.579,478.638z M464.209,254.943l-65.051,188.086
		c57.64-44.267,92.437-113.54,92.437-187.037c0-22.659-3.285-45.183-9.65-66.774C479.345,210.163,473.54,231.569,464.209,254.943z
		 M373.292,403.888c-0.021,0-0.042,0-0.063,0c-4.341-0.027-8.189-2.798-9.59-6.906l-83.404-244.49
		c-1.032-3.026-0.585-6.361,1.207-9.009c1.793-2.649,4.722-4.303,7.916-4.469c12.568-0.657,24.219-1.911,26.896-2.211
		c1.058-1.748,0.952-6.428-0.139-8.389c-6.802,0.518-41.494,3.068-65.184,3.068c-22.236,0-57.334-2.54-64.336-3.064
		c-1.084,1.932-1.296,6.422-0.377,8.368c2.019,0.243,13.207,1.555,24.791,2.231c4.031,0.235,7.543,2.826,8.959,6.608l29.269,78.243
		c0.818,2.187,0.861,4.586,0.122,6.8l-53.793,161.323c-1.387,4.16-5.279,6.968-9.665,6.973c-0.003,0-0.007,0-0.011,0
		c-4.382,0-8.273-2.798-9.668-6.951l-80.48-239.565c-1.016-3.023-0.559-6.348,1.235-8.984c1.794-2.638,4.717-4.283,7.902-4.449
		c12.575-0.656,24.208-1.909,26.893-2.209c1.057-1.75,0.953-6.428-0.137-8.39c-6.806,0.518-41.496,3.068-65.182,3.068
		c-4.441,0-9.879-0.106-16.16-0.314c-3.688-0.121-7.024-2.228-8.72-5.505c-1.697-3.278-1.49-7.217,0.541-10.3
		C89.708,43.127,169.666,0,256.001,0c64.178,0,125.572,23.87,172.871,67.215c3.19,2.923,4.188,7.541,2.492,11.52
		c-1.697,3.979-5.71,6.46-10.038,6.179c-0.404-0.025-0.805-0.059-1.209-0.093c-0.517-0.044-1.004-0.085-1.321-0.085
		c-19.19,0-31.069,17.35-31.069,33.424c0,15.768,9.128,30.506,19.698,47.571c0.967,1.562,1.944,3.139,2.926,4.737
		c0.058,0.094,0.113,0.189,0.167,0.283c8.846,15.478,18.869,33.021,18.869,66.892c0,22.467-6.328,49.625-19.346,83.022
		l-27.138,76.438C381.458,401.171,377.606,403.888,373.292,403.888z M303.83,158.48l69.654,204.183l17.388-48.973
		c0.035-0.099,0.071-0.197,0.109-0.295c11.949-30.626,18.008-56.113,18.008-75.755c0-28.36-7.807-42.12-16.097-56.629
		c-0.941-1.531-1.879-3.043-2.806-4.541c-11.703-18.893-22.755-36.739-22.755-58.312c0-22.249,12.975-41.387,31.428-49.574
		c-40.89-31.21-90.833-48.187-142.757-48.187c-73.064,0-141.163,33.563-185.71,90.666c24.995-0.276,60.505-3.04,60.879-3.071
		c0.065-0.005,0.133-0.009,0.198-0.013c11.387-0.69,20.213,8.378,21.419,22.007c1.262,14.265-6.331,25.626-18.055,27.012
		c-0.391,0.046-6.708,0.779-15.444,1.488l66.564,198.143l43.012-128.993l-25.701-68.706c-9.753-0.744-17.885-1.71-19.509-1.907
		c-11.49-0.904-19.188-11.691-18.351-25.817c0.836-14.144,9.9-23.922,21.489-23.228c0.061,0.003,0.122,0.007,0.184,0.012
		c0.402,0.031,40.477,3.093,63.953,3.093c25.002,0,64.321-3.062,64.716-3.092c0.065-0.005,0.133-0.009,0.198-0.013
		c11.389-0.682,20.218,8.381,21.423,22.014c1.261,14.263-6.335,25.619-18.061,27.005C318.818,157.043,312.528,157.772,303.83,158.48
		z"/>
	<path style="fill:#7B7B82;" d="M257.702,393.691c-1.069,0-2.156-0.169-3.226-0.526c-5.343-1.782-8.232-7.558-6.451-12.901
		l1.36-4.079c1.782-5.343,7.559-8.233,12.901-6.451c5.343,1.782,8.232,7.558,6.451,12.901l-1.36,4.079
		C265.952,390.988,261.973,393.691,257.702,393.691z"/>
	<path style="fill:#7B7B82;" d="M229.484,478.346c-1.069,0-2.156-0.169-3.226-0.527c-5.343-1.781-8.232-7.557-6.451-12.9
		l16.999-50.996c1.782-5.342,7.557-8.236,12.901-6.45c5.343,1.781,8.232,7.557,6.45,12.9l-16.998,50.996
		C237.734,475.643,233.755,478.346,229.484,478.346z"/>
</g>
<g>
</g>
<g>
</g>
<g>
</g>
<g>
</g>
<g>
</g>
<g>
</g>
<g>
</g>
<g>
</g>
<g>
</g>
<g>
</g>
<g>
</g>
<g>
</g>
<g>
</g>
<g>
</g>
<g>
</g>
</svg>
